<svg id="图层_1" data-name="图层 1" xmlns="http://www.w3.org/2000/svg" viewBox="0 0 280 280"><defs><style>.cls-1,.cls-2,.cls-9{fill:#efda8f;}.cls-1,.cls-10,.cls-2,.cls-3,.cls-5,.cls-8,.cls-9{stroke:#55130f;stroke-miterlimit:10;}.cls-1{stroke-width:5px;}.cls-2,.cls-3,.cls-5{stroke-width:3px;}.cls-3{fill:#569f7d;}.cls-4{fill:#12183a;}.cls-5{fill:#707070;}.cls-6{fill:#c63d38;}.cls-7{fill:#52120e;}.cls-10,.cls-8{fill:none;}.cls-8{stroke-linecap:round;}.cls-10,.cls-8,.cls-9{stroke-width:4px;}</style></defs><title>小元素</title><path class="cls-1" d="M94.33,59.05h96.15a0,0,0,0,1,0,0V196a22.53,22.53,0,0,1-22.53,22.53H94.33a0,0,0,0,1,0,0V59.05A0,0,0,0,1,94.33,59.05Z"/><path class="cls-2" d="M104.88,75.33h73.61a0,0,0,0,1,0,0v39A13.67,13.67,0,0,1,164.82,128H104.88a0,0,0,0,1,0,0V75.33A0,0,0,0,1,104.88,75.33Z"/><rect class="cls-3" x="113.95" y="84.1" width="54.13" height="34.55" rx="4.14"/><circle class="cls-4" cx="109.41" cy="93.33" r="1.44"/><polygon class="cls-5" points="129.93 148.46 123.45 148.46 123.45 141.97 113.08 141.97 113.08 148.46 106.6 148.46 106.6 158.83 113.08 158.83 113.08 165.31 123.45 165.31 123.45 158.83 129.93 158.83 129.93 148.46"/><path class="cls-6" d="M155.52,174.05a7,7,0,1,1,7-7A7.05,7.05,0,0,1,155.52,174.05Z"/><path class="cls-7" d="M155.52,161.47A5.54,5.54,0,1,1,150,167a5.54,5.54,0,0,1,5.54-5.54m0-3a8.54,8.54,0,1,0,8.54,8.54,8.55,8.55,0,0,0-8.54-8.54Z"/><path class="cls-6" d="M172.09,156.73a7,7,0,1,1,7-7A7.05,7.05,0,0,1,172.09,156.73Z"/><path class="cls-7" d="M172.09,144.14a5.55,5.55,0,1,1-5.54,5.55,5.56,5.56,0,0,1,5.54-5.55m0-3a8.55,8.55,0,1,0,8.55,8.55,8.56,8.56,0,0,0-8.55-8.55Z"/><line class="cls-8" x1="109.29" y1="189.82" x2="122.67" y2="181.11"/><line class="cls-8" x1="123.83" y1="189.82" x2="137.22" y2="181.11"/><line class="cls-8" x1="148.39" y1="197.13" x2="154.8" y2="205.62"/><line class="cls-8" x1="154.14" y1="192.5" x2="160.56" y2="200.99"/><line class="cls-8" x1="159.9" y1="187.86" x2="166.31" y2="196.35"/><line class="cls-8" x1="165.66" y1="183.23" x2="172.07" y2="191.72"/><line class="cls-8" x1="171.42" y1="178.59" x2="177.83" y2="187.08"/><path class="cls-9" d="M184.85,59.05H99.94a5.62,5.62,0,0,0-5.61,5.62V69h96.14V64.67A5.62,5.62,0,0,0,184.85,59.05Z"/><line class="cls-10" x1="106.28" y1="59.62" x2="106.28" y2="69.62"/><line class="cls-10" x1="176.56" y1="58.75" x2="176.56" y2="70.05"/></svg>