<?xml version="1.0" standalone="no"?><!DOCTYPE svg PUBLIC "-//W3C//DTD SVG 1.1//EN" "http://www.w3.org/Graphics/SVG/1.1/DTD/svg11.dtd"><svg t="1635644912862" class="icon" viewBox="0 0 1024 1024" version="1.1" xmlns="http://www.w3.org/2000/svg" p-id="1416" xmlns:xlink="http://www.w3.org/1999/xlink" width="200" height="200"><defs><style type="text/css"></style></defs><path d="M513.314 111.206h206c16.2 0 23.759 7.6 23.762 23.875q0.007 29.75-0.006 59.5c-0.02 14.57-8 22.575-22.512 22.615-9.333 0.026-18.674 0.222-28-0.1-3.865-0.133-4.58 1.064-4.57 4.7q0.194 69 0.083 138c0 13.146-4.09 18.906-16.6 23.446-24.84 9.011-49.661 18.076-74.545 26.964-2.986 1.067-3.983 2.438-3.937 5.647 0.2 14.164 0.162 28.333 0.02 42.5a5.61 5.61 0 0 0 3.03 5.575c8.726 5.415 15.475 13.132 22.666 20.287a42.237 42.237 0 0 0 19.2 11.039c12.155 3.322 24.574 5.934 35.327 13.194 14.98 10.115 25.655 23.6 29.548 41.186 3.962 17.9 12.42 32.2 25.709 44.923 19.574 18.738 25.443 42.267 18.775 68.705a31.829 31.829 0 0 1-0.862 3.382c-5.655 15.133-4.732 30.022-0.066 45.4 8.622 28.41 1.558 53.184-19.549 74-0.949 0.936-1.8 1.988-2.813 2.841-10.348 8.688-16.4 19.668-19.129 32.956-3.5 17.05-11.246 31.925-24.993 43.217A71.623 71.623 0 0 1 656.411 878a31.725 31.725 0 0 1-4.319 1.216c-17.721 3.094-31.632 12.043-44.084 25.133-18.824 19.788-42.467 25.738-69.1 19.013a33.5 33.5 0 0 1-3.379-0.874c-14.963-5.5-29.706-4.818-44.92-0.141-28.81 8.856-53.816 1.62-74.8-19.87-0.931-0.954-1.987-1.8-2.842-2.813-8.48-10.074-19.215-15.94-32.14-18.615-12.979-2.686-25.051-7.694-35.262-16.632-10.977-9.608-19.232-21.179-22.124-35.379-3.747-18.4-12.857-32.715-26.278-45.715-19.172-18.571-24.83-41.871-18.325-67.917a38.366 38.366 0 0 1 1-3.863c5.456-14.974 4.748-29.7 0.073-44.923-8.786-28.6-1.647-53.5 19.63-74.418 1.188-1.168 2.246-2.485 3.516-3.552 9.832-8.26 15.444-18.8 18.087-31.331 2.772-13.144 7.732-25.388 16.8-35.721 9.626-10.964 21.211-19.166 35.414-22.07 18.205-3.723 33.319-11.791 45.172-26.138a27.82 27.82 0 0 1 8.317-7.1c5.41-2.77 6.567-6.717 6.369-12.422-0.432-12.485-0.274-25-0.044-37.494 0.065-3.542-0.983-5.107-4.389-6.318-24.74-8.8-49.39-17.846-74.07-26.811-12.663-4.6-16.629-10.291-16.63-23.927 0-45.667-0.056-91.333 0.094-137 0.013-4.014-0.72-5.406-5.053-5.238-9.652 0.375-19.33 0.2-29 0.1-12.611-0.136-20.954-8.436-21.018-21.07-0.1-20.5-0.036-41-0.027-61.5q0.01-23.416 23.232-23.4 103.503-0.01 207.003-0.004z m-0.288 106.119c-50.3-0.04-100.593-0.024-150.889-0.214-4.6-0.017-4.068 2.537-4.067 5.386q0.017 65.7 0.044 131.407c0.024 11.578-2 8.812 9.265 12.944 20.718 7.6 41.389 15.351 62.26 22.516q29.447 10.109 58.528 21.178c8.194 3.115 16.31 6.556 24.89 8.594 5.2-0.524 9.755-3.1 14.518-4.856 23.18-8.57 46.275-17.333 69.742-25.145 22.659-7.543 44.948-16.2 67.446-24.231 2.7-0.966 3.374-2.409 3.37-5.11q-0.115-69.188 0-138.377c0.006-3.254-0.966-4.281-4.25-4.273q-75.425 0.191-150.856 0.181z m43.681 688.737a53 53 0 0 0 37.665-15.8c6.181-6.055 11.936-12.583 18.977-17.722 9.842-7.183 21.655-9.159 32.977-12.366 19.6-5.553 32.175-18.012 37.667-37.62 1.076-3.842 2.213-7.673 3.138-11.552a61.761 61.761 0 0 1 18.093-31.583c5.46-5.115 10.945-10.313 15.248-16.49 9.569-13.737 11.415-28.695 7.048-44.753-2.959-10.88-6.6-21.691-5.53-33.289 0.772-8.346 3.487-16.237 5.375-24.321 1.554-6.655 2.98-13.264 2.294-20.218-1.3-13.21-7.153-24.028-16.391-33.338-5.858-5.9-12.091-11.477-17-18.281-7.025-9.739-9.056-21.358-12.151-32.535-4.446-16.054-13.762-27.925-28.983-34.853-6.373-2.9-13.238-4.478-20.019-6.119a62.752 62.752 0 0 1-32-18.341c-5.11-5.464-10.315-10.942-16.514-15.219-13.616-9.394-28.432-11.24-44.309-6.971-10.889 2.928-21.68 6.623-33.279 5.612-8.522-0.743-16.562-3.547-24.811-5.454-6.655-1.538-13.263-2.915-20.224-2.2-13.028 1.346-23.7 7.111-32.91 16.185-6.044 5.953-11.693 12.346-18.669 17.311-9.776 6.957-21.406 8.914-32.566 12.08-19.6 5.56-32.176 18.012-37.667 37.621-1.076 3.843-2.213 7.673-3.138 11.552a61.771 61.771 0 0 1-18.093 31.584c-5.459 5.116-10.944 10.313-15.248 16.49-9.57 13.736-11.416 28.695-7.047 44.752 2.96 10.88 6.6 21.691 5.53 33.289-0.772 8.346-3.488 16.237-5.375 24.322-1.553 6.655-2.981 13.264-2.295 20.218 1.3 13.21 7.153 24.028 16.391 33.338 5.858 5.9 12.092 11.476 17 18.281 7.025 9.739 9.056 21.358 12.151 32.534 4.447 16.053 13.761 27.926 28.982 34.853 6.373 2.9 13.238 4.478 20.019 6.119a62.762 62.762 0 0 1 32 18.341c5.11 5.464 10.313 10.944 16.515 15.218 13.786 9.5 28.952 11.9 44.732 6.651 19.377-6.44 38.437-6.667 57.688 0.1 4.869 1.725 10.061 2.225 14.73 2.574zM512.5 197.2q102.7 0 205.406 0.093c4.083 0.008 5.326-0.931 5.272-5.156-0.237-18.822-0.181-37.649-0.031-56.472 0.027-3.363-0.7-4.546-4.341-4.543q-205.656 0.141-411.311-0.019c-4.071 0-4.515 1.488-4.488 4.911 0.145 18.324 0.239 36.652-0.047 54.972-0.075 4.837 0.871 6.371 6.134 6.355 67.806-0.208 135.606-0.141 203.406-0.141z m-59.42 221.769c0 11.184 0.07 21.659-0.049 32.133-0.03 2.613 0.711 2.9 3.151 2.422a62.778 62.778 0 0 1 24.307-0.039 164.547 164.547 0 0 1 17.881 4.444 48.339 48.339 0 0 0 29.4 0.006c14.067-4.263 28.329-7.538 43.17-4.238 1.518 0.338 2.142 0 2.14-1.574-0.015-10.874-0.008-21.748-0.008-33.149-16.788 6.089-32.922 11.712-48.867 17.824a29.394 29.394 0 0 1-22.225 0.011c-15.948-6.119-32.08-11.739-48.9-17.84z" fill="#343741" p-id="1417"></path><path d="M556.708 906.062c-4.669-0.349-9.86-0.849-14.731-2.562-19.25-6.772-38.31-6.544-57.688-0.1-15.781 5.245-30.947 2.849-44.732-6.651-6.2-4.274-11.4-9.754-16.515-15.218a62.762 62.762 0 0 0-32-18.341c-6.781-1.64-13.646-3.218-20.019-6.119-15.221-6.928-24.536-18.8-28.982-34.853-3.1-11.176-5.127-22.8-12.151-32.534-4.908-6.8-11.141-12.377-17-18.281-9.238-9.31-15.088-20.128-16.391-33.338-0.686-6.954 0.742-13.562 2.295-20.218 1.886-8.085 4.6-15.976 5.375-24.322 1.072-11.6-2.57-22.409-5.53-33.289-4.368-16.057-2.523-31.016 7.047-44.752 4.3-6.177 9.788-11.374 15.248-16.49a61.771 61.771 0 0 0 18.093-31.584c0.926-3.88 2.062-7.71 3.138-11.552 5.492-19.609 18.07-32.062 37.667-37.621 11.16-3.166 22.79-5.123 32.566-12.08 6.977-4.965 12.626-11.358 18.669-17.311 9.212-9.074 19.883-14.839 32.91-16.185 6.962-0.719 13.569 0.658 20.224 2.2 8.25 1.906 16.289 4.711 24.811 5.454 11.6 1.011 22.39-2.684 33.279-5.612 15.878-4.269 30.694-2.423 44.309 6.971 6.2 4.277 11.4 9.754 16.514 15.219a62.752 62.752 0 0 0 32 18.341c6.781 1.64 13.646 3.218 20.019 6.119 15.221 6.927 24.537 18.8 28.983 34.853 3.1 11.176 5.126 22.8 12.151 32.535 4.908 6.8 11.141 12.377 17 18.281 9.238 9.31 15.088 20.127 16.391 33.338 0.686 6.953-0.74 13.562-2.294 20.218-1.888 8.084-4.6 15.976-5.375 24.321-1.072 11.6 2.571 22.409 5.53 33.289 4.367 16.058 2.521 31.016-7.048 44.753-4.3 6.177-9.788 11.375-15.248 16.49A61.761 61.761 0 0 0 687.132 811c-0.926 3.88-2.062 7.71-3.138 11.552-5.493 19.608-18.068 32.067-37.667 37.62-11.321 3.207-23.134 5.183-32.977 12.366-7.042 5.139-12.8 11.667-18.977 17.722a53 53 0 0 1-37.665 15.802zM512.632 872.2c101.713-0.032 184.3-82.554 184.442-184.3 0.143-101.864-82.655-184.726-184.549-184.691-101.708 0.034-184.343 82.606-184.441 184.3-0.098 101.913 82.648 184.724 184.548 184.691zM512.5 197.2c-67.8 0-135.6-0.072-203.406 0.14-5.263 0.016-6.209-1.518-6.134-6.355 0.286-18.32 0.191-36.649 0.047-54.972-0.027-3.424 0.417-4.915 4.488-4.911q205.655 0.178 411.311 0.019c3.638 0 4.368 1.18 4.341 4.543-0.15 18.824-0.206 37.651 0.031 56.472 0.053 4.225-1.189 5.164-5.272 5.156q-102.7-0.192-205.406-0.092z" fill="#F5715A" p-id="1418"></path><path d="M513.057 419.137c-8.58-2.039-16.7-5.479-24.89-8.594q-29.1-11.062-58.528-21.178c-20.87-7.165-41.541-14.914-62.26-22.516-11.262-4.132-9.241-1.366-9.265-12.944q-0.135-65.7-0.044-131.407c0-2.849-0.537-5.4 4.067-5.386 50.3 0.191 100.592 0.174 150.889 0.214l0.071 32.717c-4.658 0.055-9.317 0.075-13.975 0.174-6.967 0.147-10.989 3.932-11.009 10.782q-0.115 39.206 0 78.413c0.02 6.851 4.041 10.636 11.008 10.783 4.658 0.1 9.317 0.119 13.975 0.174l-0.039 68.768zM398.08 300.217c0 12.814-0.04 25.628 0.015 38.442 0.032 7.574 3.833 11.464 11.267 11.525q13.729 0.113 27.459 0c7.421-0.062 11.23-3.963 11.242-11.55q0.06-38.442 0-76.885c-0.013-7.753-3.877-11.492-11.766-11.534-8.653-0.046-17.307-0.032-25.961 0-8.523 0.027-12.225 3.658-12.247 12.063-0.035 12.644-0.01 25.292-0.009 37.939z" fill="#717B9A" p-id="1419"></path><path d="M513.057 419.137l0.039-68.769-0.033-0.307c4.825 0.045 9.653 0.217 14.474 0.1 6.553-0.152 10.487-4.1 10.506-10.758q0.111-39.2 0-78.405c-0.019-6.659-3.953-10.606-10.506-10.758-4.821-0.112-9.649 0.06-14.474 0.105l0.033-0.307-0.07-32.717q75.43-0.059 150.861-0.179c3.283-0.008 4.256 1.019 4.25 4.273q-0.131 69.188 0 138.377c0 2.7-0.665 4.144-3.37 5.11-22.5 8.035-44.787 16.688-67.446 24.231-23.467 7.812-46.562 16.575-69.742 25.145-4.767 1.764-9.323 4.335-14.522 4.859z m115.022-118.965c0-12.647 0.026-25.295-0.009-37.942-0.023-8.219-3.707-11.971-11.793-12.014q-13.23-0.071-26.46 0c-7.866 0.044-11.708 3.8-11.721 11.579q-0.063 38.441 0 76.883c0.014 7.753 3.875 11.473 11.785 11.515q12.98 0.07 25.96 0c8.536-0.029 12.205-3.64 12.228-12.084 0.031-12.642 0.01-25.29 0.01-37.937z" fill="#5A6286" p-id="1420"></path><path d="M453.08 418.969c16.817 6.1 32.953 11.72 48.9 17.84a29.394 29.394 0 0 0 22.22-0.009c15.946-6.112 32.079-11.735 48.867-17.824 0 11.4-0.007 22.275 0.008 33.149 0 1.572-0.622 1.912-2.14 1.574-14.841-3.3-29.1-0.025-43.17 4.238a48.339 48.339 0 0 1-29.4-0.006 164.547 164.547 0 0 0-17.881-4.444 62.778 62.778 0 0 0-24.307 0.039c-2.44 0.481-3.181 0.191-3.151-2.422 0.124-10.475 0.054-20.951 0.054-32.135z" fill="#FEE180" p-id="1421"></path><path d="M512.632 872.2c-101.9 0.032-184.646-82.778-184.548-184.692 0.1-101.694 82.732-184.265 184.441-184.3 101.894-0.034 184.692 82.827 184.549 184.691-0.143 101.747-82.729 184.269-184.442 184.301z m0.395-348.872c-7.186-0.732-14.358 0.147-21.385 1.151-42.021 6-77.612 24.419-104.664 57.374-38.636 47.065-48.672 100.323-30.2 158.184 12.489 39.113 37.624 68.975 72.977 89.788a157.769 157.769 0 0 0 83.269 22.254c13.05 0.492 25.83-1.5 38.433-4.575A164.934 164.934 0 0 0 665.5 748.22a165.737 165.737 0 0 0-1.84-125.667c-14.268-32.481-36.551-58.137-67.1-76.275-25.691-15.25-53.544-23.112-83.533-22.949z" fill="#343741" p-id="1422"></path><path d="M398.079 300.217c0-12.648-0.025-25.3 0.008-37.943 0.022-8.405 3.724-12.036 12.247-12.063 8.654-0.028 17.308-0.041 25.961 0 7.888 0.042 11.753 3.781 11.766 11.534q0.064 38.442 0 76.885c-0.012 7.588-3.821 11.488-11.242 11.55q-13.728 0.115-27.459 0c-7.435-0.061-11.235-3.951-11.267-11.525-0.053-12.809-0.013-25.624-0.014-38.438zM513.1 350.368c-4.659-0.055-9.318-0.075-13.975-0.174-6.966-0.148-10.988-3.932-11.008-10.783Q488 300.2 488.114 261c0.02-6.85 4.042-10.635 11.009-10.782 4.658-0.1 9.317-0.118 13.975-0.174l-0.034 0.307v99.712z" fill="#FEE180" p-id="1423"></path><path d="M628.079 300.172c0 12.647 0.025 25.295-0.009 37.942-0.023 8.444-3.692 12.054-12.228 12.084q-12.98 0.044-25.96 0c-7.91-0.042-11.771-3.762-11.785-11.515q-0.067-38.441 0-76.883c0.013-7.783 3.855-11.535 11.721-11.579q13.229-0.074 26.46 0c8.086 0.043 11.77 3.8 11.793 12.014 0.029 12.642 0.008 25.29 0.008 37.937zM513.064 350.06v-99.712c4.825-0.045 9.653-0.217 14.475-0.1 6.553 0.152 10.487 4.1 10.506 10.758q0.112 39.2 0 78.405c-0.019 6.659-3.953 10.606-10.506 10.758-4.822 0.109-9.65-0.063-14.475-0.109z" fill="#FED243" p-id="1424"></path><path d="M513.027 852.08a157.769 157.769 0 0 1-83.269-22.254c-35.353-20.813-60.488-50.675-72.977-89.788-18.475-57.862-8.439-111.119 30.2-158.184 27.053-32.955 62.643-51.372 104.664-57.374 7.027-1 14.2-1.883 21.385-1.152 0.017 12.2 0 24.405 0.083 36.608 0.014 2.078-0.11 3.936-2.08 5.132-11.2 0.906-19.466 6.407-24.575 16.322-6.252 12.133-12.422 24.319-18.182 36.689-1.97 4.231-4.423 6.53-9.075 6.949-5.613 0.507-11.2 1.393-16.777 2.215-9.027 1.329-18.182 2.149-27.026 4.262-11.4 2.722-19.047 10.213-21.742 21.765-2.911 12.478 1.356 22.792 10.595 31.448 9.6 8.991 18.873 18.321 28.425 27.36a7.143 7.143 0 0 1 2.249 7.134c-2.374 13.562-4.561 27.157-7.025 40.7-2.313 12.717 1.472 23.119 11.858 30.666 10.65 7.738 21.892 7.376 33.345 1.327 13.238-6.992 26.609-13.73 39.923-20.579q-0.002 40.374 0.001 80.754z" fill="#717B9A" p-id="1425"></path><path d="M513.027 852.08v-80.752c13.458 6.912 26.943 13.773 40.365 20.754 10.885 5.661 21.637 6.067 32.088-0.816 10.1-6.65 14.752-16.5 13.326-28.214-1.717-14.115-4.692-28.084-7.339-42.076-0.747-3.949-0.138-6.837 2.91-9.775 11-10.608 22.065-21.2 32.448-32.4 7.557-8.154 8.185-18.407 4.681-28.565-3.558-10.317-11.026-17.052-21.878-18.959-14.994-2.636-30.076-4.8-45.163-6.861-3.011-0.411-4.255-1.845-5.426-4.225-5.879-11.945-12.1-23.73-17.745-35.782-6.082-12.972-15.865-19.635-30.26-19.344 1.97-1.2 2.094-3.054 2.08-5.132-0.08-12.2-0.065-24.406-0.083-36.608 29.989-0.162 57.842 7.7 83.53 22.95 30.552 18.139 52.835 43.794 67.1 76.275a164.678 164.678 0 0 1-112.2 224.952c-12.604 3.077-25.384 5.07-38.434 4.578z" fill="#5A6286" p-id="1426"></path><path d="M511.029 565.068c14.4-0.291 24.178 6.372 30.26 19.344 5.65 12.051 11.866 23.836 17.745 35.782 1.171 2.38 2.416 3.814 5.426 4.225 15.087 2.059 30.168 4.225 45.163 6.861 10.852 1.908 18.32 8.643 21.878 18.959 3.5 10.158 2.876 20.411-4.681 28.565-10.383 11.2-21.443 21.791-32.448 32.4-3.048 2.938-3.657 5.825-2.91 9.775 2.647 13.991 5.622 27.96 7.339 42.076 1.425 11.715-3.229 21.564-13.326 28.214-10.451 6.883-21.2 6.477-32.088 0.816-13.423-6.981-26.907-13.842-40.365-20.754-13.314 6.849-26.685 13.588-39.923 20.58-11.453 6.049-22.7 6.411-33.345-1.327-10.386-7.546-14.17-17.949-11.858-30.666 2.463-13.545 4.65-27.141 7.025-40.7a7.143 7.143 0 0 0-2.249-7.134c-9.552-9.039-18.829-18.369-28.425-27.36-9.238-8.656-13.505-18.97-10.595-31.448 2.695-11.552 10.345-19.043 21.742-21.765 8.844-2.112 18-2.933 27.026-4.262 5.581-0.822 11.163-1.708 16.777-2.215 4.652-0.42 7.1-2.719 9.075-6.949 5.761-12.37 11.93-24.556 18.182-36.689 5.11-9.921 13.372-15.422 24.575-16.328z m14.913 34.146c-0.889-1.951-1.807-3.89-2.663-5.857-1.963-4.509-4.632-8.152-10.16-8.194-5.544-0.043-8.09 3.624-10.254 8.066-6.911 14.192-14.006 28.294-20.964 42.463-2.126 4.329-5.108 6.981-10.192 7.65-16.152 2.125-32.258 4.6-48.385 6.923-4.564 0.656-8.524 2.387-9.987 7.077-1.426 4.571 0.335 8.3 3.8 11.6 11.456 10.927 22.6 22.186 34.184 32.973 4.476 4.168 5.537 8.728 4.542 14.375-2.739 15.548-5.239 31.14-8.122 46.661-0.849 4.57-0.158 8.29 3.453 11.173 3.895 3.11 7.943 2.477 12.108 0.248 9.089-4.864 18.209-9.675 27.413-14.318 7.405-3.735 14.335-8.468 22.391-10.865a32.9 32.9 0 0 1 8.286 3.325c13.961 7.32 27.953 14.583 41.876 21.974 4.045 2.147 7.907 2.574 11.606-0.393 3.4-2.73 4.367-6.207 3.55-10.638-2.885-15.643-5.435-31.348-8.186-47.016-1.02-5.809 0.117-10.479 4.754-14.762 11.366-10.5 22.244-21.521 33.426-32.221 3.615-3.46 6.07-7.19 4.256-12.312-1.823-5.147-6.3-6.3-11.114-6.986-15.594-2.212-31.149-4.717-46.768-6.724-5.5-0.706-8.537-3.555-10.823-8.231-5.893-12.049-12.003-23.999-18.027-35.991z" fill="#343741" p-id="1427"></path><path d="M513.107 749.2c-8.056 2.4-14.985 7.129-22.391 10.865-9.2 4.642-18.324 9.454-27.413 14.318-4.165 2.229-8.214 2.861-12.108-0.248-3.611-2.883-4.3-6.6-3.453-11.173 2.883-15.521 5.382-31.113 8.122-46.661 0.995-5.646-0.066-10.207-4.542-14.375-11.584-10.787-22.728-22.045-34.184-32.973-3.465-3.305-5.225-7.034-3.8-11.6 1.463-4.69 5.423-6.421 9.987-7.077 16.127-2.318 32.233-4.8 48.385-6.923 5.084-0.669 8.066-3.321 10.192-7.65 6.958-14.169 14.053-28.271 20.964-42.463 2.163-4.442 4.71-8.109 10.254-8.066 5.528 0.042 8.2 3.685 10.16 8.194 0.856 1.966 1.773 3.905 2.663 5.856a68.479 68.479 0 0 1-7.988-0.067c-4.169-0.5-4.954 1.386-4.945 5.147q0.17 72.44 0.097 144.896z" fill="#FEE180" p-id="1428"></path><path d="M513.107 749.2q-0.014-72.451-0.1-144.9c-0.009-3.761 0.775-5.645 4.945-5.147a68.479 68.479 0 0 0 7.988 0.067c6.024 11.992 12.134 23.942 18.027 36 2.286 4.676 5.325 7.525 10.823 8.231 15.62 2.006 31.174 4.512 46.768 6.724 4.816 0.683 9.291 1.839 11.114 6.986 1.814 5.122-0.64 8.852-4.256 12.312-11.182 10.7-22.061 21.723-33.426 32.221-4.637 4.283-5.773 8.954-4.754 14.762 2.751 15.668 5.3 31.373 8.186 47.016 0.817 4.431-0.146 7.908-3.55 10.638-3.7 2.967-7.561 2.54-11.606 0.393-13.923-7.391-27.915-14.653-41.876-21.974a32.9 32.9 0 0 0-8.283-3.329z" fill="#FEDB67" p-id="1429"></path></svg>