<?xml version="1.0" standalone="no"?><!DOCTYPE svg PUBLIC "-//W3C//DTD SVG 1.1//EN" "http://www.w3.org/Graphics/SVG/1.1/DTD/svg11.dtd"><svg t="1635644938117" class="icon" viewBox="0 0 1024 1024" version="1.1" xmlns="http://www.w3.org/2000/svg" p-id="1571" xmlns:xlink="http://www.w3.org/1999/xlink" width="200" height="200"><defs><style type="text/css"></style></defs><path d="M898.081 458.01v253.476c0 13.035-3.942 18.823-15.917 23.5q-118.181 46.165-236.324 92.426a27.86 27.86 0 0 1-21.66-0.042q-113.98-44.607-228.127-88.76a11.41 11.41 0 0 0-7.821 0.074c-76.56 32.725-153.173 65.333-229.447 98.714-15.905 6.961-30.974-3.545-30.936-20.373q0.562-254.473 0.148-508.948c-0.008-11.243 4.67-18.421 14.946-22.825q118.69-50.857 237.248-102.02c7.374-3.182 14.241-3.08 21.672-0.186q113.815 44.323 227.7 88.465a13.691 13.691 0 0 0 10.893 0Q754.38 226.785 868.4 182.294c16.428-6.424 29.676 2.581 29.679 20.242q0.014 127.737 0.002 255.474z m-507 257.895a12.175 12.175 0 0 1 2.447 0.419q52.2 20.294 104.37 40.639 66.556 25.948 133.133 51.84c1.792 0.694 4.01 0.288 6.029 0.394 1.265-0.378 2.565-0.667 3.79-1.146q115.988-45.36 232.017-90.613c4.216-1.638 5.305-3.516 5.3-7.8q-0.17-251.942-0.1-503.884v-5.7c-1.276 0.377-1.9 0.512-2.482 0.74q-26.931 10.48-53.855 20.978-77.267 30.161-154.53 60.363c-10.487 4.107-20.853 8.526-31.272 12.8q-32.017-12.426-64.035-24.849-74.284-28.748-148.585-57.452c-10.354-4-20.778-7.812-31.169-11.711a19.651 19.651 0 0 0-4.427 0.788q-41.267 17.618-82.479 35.364-76.254 32.785-152.544 65.484c-3.758 1.6-4.7 3.5-4.693 7.342q0.144 252.212 0.083 504.424v5.856c7.813-3.317 14.826-6.263 21.814-9.267q72.581-31.2 145.155-62.421 38.004-16.327 76.034-32.593z" fill="#353842" p-id="1572"></path><path d="M635.928 294.937c10.422-4.275 20.787-8.694 31.274-12.8q77.241-30.252 154.536-60.366 26.92-10.508 53.855-20.978c0.585-0.228 1.206-0.363 2.482-0.74v5.7q0 251.942 0.1 503.884c0 4.284-1.086 6.162-5.3 7.8q-116.088 45.1-232.017 90.613c-1.225 0.479-2.525 0.768-3.79 1.145l0.022-142.239c22.16-7.1 30.661-18.379 29.849-39.619a16.943 16.943 0 0 0 2.206-1.125q43.559-30.665 87.08-61.382c8.113-5.741 16.04-11.745 24.052-17.628 8.97 6.058 18.65 8.4 29.344 5.739 14.64-3.639 25.907-17.216 26.433-31.948 0.58-16.267-8.959-30.208-24.069-35.174a34.822 34.822 0 0 0-39.9 13.644c-6.741 10.142-7.453 21.032-3.89 32.423q-24.835 17.458-49.662 34.925-29.86 21.105-59.648 42.312c-5.967-6.369-13.369-10.148-21.8-12.079q0-42.936-0.013-85.871-0.035-34.695-0.158-69.389l39.9-16.887c0.884 1.208 1.746 2.433 2.656 3.622a35.1 35.1 0 0 0 41.779 10.447c14.726-6.636 23.413-22.9 20.28-37.972-3.8-18.278-18.691-29.945-36.933-28.94-17.454 0.962-31.061 15.089-32.6 33.847-2.633 0.873-5.307 1.637-7.89 2.638-9.026 3.5-18.02 7.074-27.027 10.621q0-59.32-0.045-118.64c-0.007-1.862-0.722-3.72-1.106-5.583z" fill="#717B9A" p-id="1573"></path><path d="M391.082 715.9l-76.03 32.6q-72.586 31.188-145.152 62.417c-6.988 3-14 5.95-21.814 9.267v-5.856q0-252.212-0.083-504.424c0-3.837 0.935-5.74 4.693-7.342q76.354-32.551 152.544-65.484 41.222-17.723 82.479-35.364a19.629 19.629 0 0 1 4.426-0.787l-0.111 37.955c-14.239 1.1-22.946 10.556-22.947 24.993q-0.013 113.135 0 226.27v5.165l-1.309 0.556c-1.151-1.391-2.218-2.862-3.465-4.161q-18.65-19.438-37.35-38.828c1.849-6.965 2.954-13.891 1.158-21.14a34.991 34.991 0 0 0-68.141 15.931c4.983 22.718 32.308 36.244 54.859 20.592a28.142 28.142 0 0 0 2.313 3.165c11.718 12.183 23.5 24.3 35.19 36.513 2.5 2.614 4.693 5.527 7.024 8.3-1.736 7.134-3.39 14.273-1.43 21.65a6.839 6.839 0 0 0-1.814 0.738c-10.748 8.661-21.454 17.376-32.2 26.036q-28.94 23.314-57.918 46.582c-9.3-5.856-19.1-9.04-30.253-6.249a34.989 34.989 0 1 0 39.286 50.3c4.595-8.712 4.823-17.778 2.769-27.122q30.115-24.579 60.226-49.165c9.765-7.987 19.477-16.038 29.213-24.06 7.111 6.281 15.306 9.918 24.875 10.213q-0.015 71.969-0.072 143.938a48.3 48.3 0 0 1-0.966 6.801z" fill="#717A9A" p-id="1574"></path><path d="M391.082 715.9a48.3 48.3 0 0 0 0.954-6.8q0.1-71.969 0.072-143.938c12.612-0.5 22.367-6.226 29.773-16.258 19.058 9.041 38.147 18.016 57.166 27.139 29.661 14.227 59.247 28.607 88.921 42.807 9.57 4.58 19.314 8.8 28.978 13.177 1.179 4.986 1.513 10.38 3.691 14.883 7.3 15.092 20.13 20.932 36.447 20.041l-0.022 142.239c-2.02-0.1-4.238 0.3-6.029-0.392q-66.607-25.815-133.133-51.84-52.177-20.342-104.37-40.639a12.175 12.175 0 0 0-2.448-0.419zM392.03 238.882l0.111-37.955c10.392 3.9 20.816 7.714 31.17 11.711q74.309 28.684 148.589 57.451 32.029 12.4 64.034 24.848c0.382 1.86 1.1 3.72 1.1 5.582q0.095 59.32 0.046 118.639c-12.216 5.191-24.377 10.516-36.658 15.551q-67.588 27.712-135.247 55.253c-15.076 6.142-30.219 12.119-45.331 18.17l-4.644-3.992V404.034c7.477 0 14.3-0.357 21.068 0.081 11.21 0.725 22.136 3.1 31.615 9.461 14.879 9.979 30.663 14.724 48.894 12.63 19.638-2.256 37.15-19.185 37.223-38.457 0.049-13.121-0.562-26.249-1.062-39.367a120.07 120.07 0 0 0-1.439-16.321 39.883 39.883 0 0 0-49.373-31.377c-9.306 2.338-18.917 3.169-26.874-4.139-16.461-15.118-35.193-26.582-55.628-35.485a11.248 11.248 0 0 1-5.431-5.722c-3.949-10.338-11.28-15.678-22.163-16.456zM636.914 441.783q0.082 34.695 0.158 69.389 0.043 42.936 0.013 85.871-21.823-1.613-34.76 16.035-23.188-11.092-46.374-22.186-64.354-30.876-128.7-61.775l-0.075-2.129q21.656-8.808 43.311-17.619 63.111-25.8 126.217-51.615c13.356-5.444 26.805-10.654 40.21-15.971z" fill="#5A6286" p-id="1575"></path><path d="M636.914 441.783c-13.405 5.317-26.854 10.527-40.207 15.97q-63.137 25.739-126.217 51.615-21.64 8.847-43.311 17.619l-7.339-18.854c15.112-6.052 30.255-12.029 45.331-18.171q67.649-27.562 135.247-55.253c12.28-5.035 24.442-10.36 36.658-15.551 9.006-3.546 18-7.124 27.027-10.62 2.583-1 5.257-1.765 7.89-2.636l4.82 18.994z" fill="#343742" p-id="1576"></path><path d="M676.812 424.9l-4.82-18.994c1.541-18.76 15.148-32.887 32.6-33.849 18.242-1.005 33.132 10.663 36.933 28.94 3.134 15.069-5.554 31.336-20.28 37.972a35.1 35.1 0 0 1-41.779-10.447c-0.908-1.192-1.766-2.422-2.654-3.622z" fill="#FDE081" p-id="1577"></path><path d="M768.191 531.886c-3.564-11.391-2.851-22.281 3.89-32.423a34.822 34.822 0 0 1 39.9-13.644c15.109 4.965 24.649 18.906 24.069 35.174-0.526 14.732-11.792 28.309-26.433 31.948-10.693 2.658-20.373 0.319-29.346-5.741z" fill="#F4715A" p-id="1578"></path><path d="M602.325 613.078q12.917-17.693 34.76-16.035c8.426 1.932 15.828 5.711 21.8 12.08l8.053 18.213c0.812 21.241-7.688 32.524-29.849 39.619-16.317 0.891-29.148-4.949-36.447-20.041-2.178-4.5-2.512-9.9-3.691-14.884z" fill="#FDE080" p-id="1579"></path><path d="M666.934 627.337l-8.053-18.213q29.821-21.16 59.648-42.312 24.789-17.521 49.662-34.925L780.27 547.2c-8.01 5.885-15.937 11.889-24.05 17.63q-43.484 30.77-87.08 61.382a16.943 16.943 0 0 1-2.206 1.125z" fill="#353842" p-id="1580"></path><path d="M392.03 238.882c10.883 0.778 18.214 6.118 22.159 16.457a11.248 11.248 0 0 0 5.431 5.722c20.435 8.9 39.167 20.367 55.628 35.485 7.957 7.308 17.568 6.476 26.874 4.139a39.883 39.883 0 0 1 49.378 31.376 120.07 120.07 0 0 1 1.439 16.321c0.5 13.118 1.112 26.245 1.062 39.367-0.073 19.272-17.585 36.2-37.223 38.457-18.232 2.094-34.016-2.651-48.894-12.63-9.48-6.358-20.405-8.736-31.615-9.461-6.769-0.438-13.59-0.081-21.068-0.081V504.14c-0.042 7.144 0.413 14.339-0.3 21.415a33.187 33.187 0 0 1-4.2 13.495c-5.037 8.332-15.524 11.671-24.882 8.949a22.82 22.82 0 0 1-16.659-21.252c-0.209-7.357-0.041-14.724-0.041-22.087l-1.316-0.429-8.432 12.011c-2.334-2.775-4.524-5.689-7.027-8.3-11.689-12.211-23.472-24.33-35.19-36.513a27.58 27.58 0 0 1-2.31-3.168l12.12-15.381q18.681 19.408 37.35 38.828c1.246 1.3 2.314 2.77 3.465 4.161l1.309-0.556v-5.165-226.27c-0.004-14.44 8.703-23.895 22.942-24.996z m95.058 83.292c-10.61-0.433-19.274-5.24-27.053-12.035-13.137-12.182-28.145-21.39-44.582-28.793v102.381a14.591 14.591 0 0 0 1.822 0.256c2.166-0.014 4.333-0.044 6.5-0.11 21.632-0.658 41.93 3.273 60.168 15.917 8.562 5.936 18.43 7.778 29.029 6.414 14.256-1.834 21.578-9.704 21.028-23.939-0.537-13.81-1.405-27.608-1.827-41.421-0.443-14.507-10.507-22.988-24.8-20.832-6.722 1.014-13.523 1.459-20.285 2.162z m-98.008 71.833v126.98c0 1.333-0.36 2.811 0.1 3.963 0.578 1.454 1.826 2.641 2.785 3.943a25.339 25.339 0 0 0 3.027-3.714c0.426-0.765 0.088-1.957 0.088-2.957v-256.46c0-0.833 0.3-1.838-0.064-2.465a42.32 42.32 0 0 0-3.065-4.19c-0.954 1.307-2.2 2.5-2.771 3.957-0.456 1.154-0.1 2.63-0.1 3.963v126.98z" fill="#343741" p-id="1581"></path><path d="M277.795 628.178c2.054 9.344 1.825 18.41-2.769 27.122A34.99 34.99 0 1 1 235.74 605c11.158-2.79 20.949 0.393 30.253 6.247q5.901 8.463 11.802 16.931zM326.955 452.877l-12.12 15.381c-22.555 15.654-49.879 2.128-54.862-20.59a34.991 34.991 0 0 1 68.141-15.931c1.795 7.249 0.686 14.175-1.159 21.14z" fill="#F4715A" p-id="1582"></path><path d="M277.795 628.178l-11.8-16.932q28.961-23.286 57.918-46.58c10.75-8.66 21.455-17.375 32.2-26.036a6.767 6.767 0 0 1 1.815-0.737l9.305 17.06c-9.736 8.022-19.448 16.074-29.213 24.06q-30.09 24.61-60.225 49.165z" fill="#353842" p-id="1583"></path><path d="M367.234 554.953l-9.305-17.06c-1.96-7.379-0.306-14.518 1.429-21.652q4.22-6.006 8.435-12.012l1.316 0.429c0 7.363-0.168 14.73 0.041 22.087A22.82 22.82 0 0 0 385.809 548c9.358 2.722 19.845-0.617 24.882-8.949a33.187 33.187 0 0 0 4.2-13.495c0.715-7.076 0.26-14.27 0.3-21.415l4.643 3.992 7.339 18.856 0.075 2.129-5.373 19.792c-7.405 10.032-17.161 15.761-29.773 16.258-9.562-0.297-17.757-3.934-24.868-10.215z" fill="#FBDF80" p-id="1584"></path><path d="M421.881 548.908l5.373-19.792q64.348 30.889 128.7 61.775 23.175 11.119 46.374 22.186l-5.378 18.953c-9.664-4.381-19.409-8.6-28.979-13.177-29.673-14.2-59.26-28.58-88.921-42.807-19.022-9.121-38.111-18.096-57.169-27.138z" fill="#343742" p-id="1585"></path><path d="M487.088 322.174c6.762-0.7 13.563-1.148 20.279-2.161 14.3-2.156 24.361 6.324 24.8 20.832 0.421 13.813 1.29 27.611 1.827 41.421 0.553 14.23-6.769 22.1-21.028 23.939-10.6 1.364-20.467-0.478-29.029-6.414-18.238-12.644-38.536-16.575-60.168-15.917-2.165 0.066-4.332 0.1-6.5 0.11a14.591 14.591 0 0 1-1.822-0.256V281.346c16.437 7.4 31.445 16.611 44.582 28.793a33.609 33.609 0 0 0 0.583 3.908q5.58 20.841 11.232 41.664c2.053 7.625 4.072 15.259 6.106 22.89l1.45-1.461c3.069 1.632 6.457 2.871 9.11 5.017 2.228 1.8 3.25 5.083 5.462 6.918 1.745 1.448 4.773 2.747 6.721 2.222 2.808-0.757 4.006-3.592 3.057-6.908-3.688-12.879-7.355-25.765-10.852-38.7-2.098-7.789-3.882-15.673-5.81-23.515z" fill="#F4705A" p-id="1586"></path><path d="M389.08 394.007v-126.98c0-1.333-0.359-2.809 0.1-3.963 0.576-1.456 1.817-2.65 2.771-3.957a42.32 42.32 0 0 1 3.065 4.19c0.36 0.627 0.064 1.632 0.064 2.465v256.46c0 1 0.338 2.193-0.088 2.957a25.339 25.339 0 0 1-3.027 3.714c-0.959-1.3-2.206-2.489-2.785-3.943-0.458-1.152-0.1-2.63-0.1-3.963v-126.98z" fill="#5063A6" p-id="1587"></path><path d="M487.088 322.174c1.928 7.842 3.708 15.725 5.816 23.518 3.5 12.932 7.164 25.818 10.852 38.7 0.95 3.316-0.248 6.151-3.057 6.908-1.948 0.525-4.976-0.774-6.721-2.222-2.212-1.835-3.234-5.117-5.462-6.918-2.653-2.146-6.041-3.385-9.11-5.017l-1.45 1.461c-2.034-7.63-4.053-15.265-6.106-22.89q-5.61-20.833-11.232-41.664a33.609 33.609 0 0 1-0.583-3.908c7.78 6.792 16.444 11.599 27.053 12.032z" fill="#ED6D57" p-id="1588"></path></svg>